PathFileType	4	(X/Y/Z)	c:/Users/goper/Files/vsCode/490R/osim_files/C11/C11_SSWS_01.trc
DataRate	CameraRate	NumFrames	NumMarkers	Units                	OrigDataRate	OrigDataStartFrame	OrigNumFrames
120.00	120.00	8	36	mm	120.0	566	1131
                Frame#	Time	LPSI			LASI			LTH1			LTH2			LTH3			LTH4			LLFE			LMFE			LSH1			LSH2			LSH3			LSH4			LLMA			LMMA			LCAL			LMTP			LTOE			LMTP			RPSI			RASI			RTH1			RTH2			RTH3			RTH4			RLFE			RMFE			RSH1			RSH2			RSH3			RSH4			RLMA			RMMA			RCAL			RMTP			RTOE			RMTP		
		X1	Y1	Z1	X2	Y2	Z2	X3	Y3	Z3	X4	Y4	Z4	X5	Y5	Z5	X6	Y6	Z6	X7	Y7	Z7	X8	Y8	Z8	X9	Y9	Z9	X10	Y10	Z10	X11	Y11	Z11	X12	Y12	Z12	X13	Y13	Z13	X14	Y14	Z14	X15	Y15	Z15	X16	Y16	Z16	X17	Y17	Z17	X18	Y18	Z18	X19	Y19	Z19	X20	Y20	Z20	X21	Y21	Z21	X22	Y22	Z22	X23	Y23	Z23	X24	Y24	Z24	X25	Y25	Z25	X26	Y26	Z26	X27	Y27	Z27	X28	Y28	Z28	X29	Y29	Z29	X30	Y30	Z30	X31	Y31	Z31	X32	Y32	Z32	X33	Y33	Z33	X34	Y34	Z34	X35	Y35	Z35	X36	Y36	Z36

566	4.70833	-372.65289	967.56464	212.99977	-540.91675	963.47827	300.97845	-362.98932	595.26379	313.16574	-414.23196	509.56903	302.37384	-418.67255	581.80542	333.19736	-406.50937	537.80524	325.95642	-356.12521	478.17612	311.57693	-393.35449	471.42865	205.37231	-255.47539	419.40436	311.12079	-229.16168	382.01746	308.54562	-301.90176	378.78519	319.53314	-269.62576	348.09995	315.46683	-89.58705	145.62343	235.66422	-131.11230	158.69293	147.25432	-28.65716	145.54309	173.50464	-169.50426	53.12760	258.43884	-235.82773	53.46249	193.73384	-162.30235	64.99709	137.52644	-383.19766	980.16461	131.33484	-555.65460	958.60345	70.34574	-606.27118	610.99164	39.48493	-625.99536	573.62164	49.42561	-660.84442	636.15771	58.53812	-672.04181	594.06329	63.09644	-675.56885	508.98740	73.23012	-640.15753	483.88907	179.77237	-643.20050	387.48807	52.98943	-658.29095	344.52692	57.76788	-702.74860	401.87595	67.50240	-708.90265	355.97888	67.21357	-730.42072	95.24199	116.99197	-753.73401	112.49559	216.32700	-671.27429	57.11660	175.17763	-885.90533	70.45923	200.55869	-889.07281	82.76703	149.45268	-853.22473	47.69336	92.77515
567	4.71667	-384.33533	967.74664	213.52222	-552.85168	963.73718	300.90637	-379.77448	593.08948	313.83682	-426.32831	510.28986	303.42926	-435.39920	580.46686	333.75882	-423.84940	536.25427	326.61121	-373.68954	477.09756	312.55698	-411.07831	469.46695	206.51039	-271.47269	421.83554	311.90952	-244.44484	386.55618	308.50433	-316.48962	379.86957	321.15305	-283.40530	350.27090	317.29349	-97.67609	151.55701	238.07642	-139.89174	163.74211	150.05191	-36.97448	155.93884	175.94774	-173.73610	56.43662	259.54150	-237.32104	53.96415	193.87030	-167.59511	67.40453	139.09512	-394.61966	980.53656	131.83125	-567.04529	959.43713	70.28067	-617.61920	611.71503	40.74804	-637.07416	574.34961	50.63811	-671.93372	636.68262	60.38608	-683.16791	594.70709	64.85921	-685.98712	509.03619	74.68415	-649.16699	483.36685	180.49786	-652.95618	388.40738	53.22743	-667.50098	344.88104	58.21377	-712.46991	401.92236	69.07998	-718.81897	354.80771	70.19049	-732.99200	94.61263	117.05402	-756.92633	111.19491	216.07954	-672.31683	58.29884	174.66325	-888.08606	64.70507	200.20639	-891.39978	77.20814	149.23520	-854.55609	43.64892	92.26129
568	4.72500	-396.07596	967.80646	213.90454	-565.00287	964.15613	300.77185	-397.17029	590.81189	314.58118	-438.80334	511.06772	304.54761	-452.90549	579.07910	334.50110	-441.97504	534.66016	327.60468	-392.08261	475.77423	313.72943	-429.80231	467.16962	207.82701	-288.80612	423.91467	313.27036	-260.70261	389.55597	310.10815	-332.50452	380.75577	323.26965	-298.44803	352.05978	319.50089	-106.68258	157.93442	240.65630	-149.49998	168.98882	153.01711	-46.62430	166.87024	178.64221	-178.41116	59.66708	260.69128	-239.13716	54.66154	194.14639	-173.58980	69.97646	140.83488	-406.07736	980.73065	132.21547	-578.40192	960.33954	70.11286	-628.33057	612.20258	41.87112	-647.77917	574.67743	51.72778	-682.77057	636.89478	61.78051	-693.69366	594.94989	66.11432	-696.24780	509.07425	75.78597	-658.20612	483.01263	180.87660	-662.20764	389.22479	53.28074	-676.08386	345.34464	58.45794	-721.87988	401.64874	70.38602	-727.53046	354.45667	71.34354	-735.18726	94.20222	117.15872	-759.32452	110.17635	215.84457	-673.82251	59.03516	174.96913	-889.65253	60.06810	200.57462	-893.31152	73.01199	149.59639	-855.85510	41.84473	91.61319
569	4.73333	-407.40515	967.78479	214.37149	-576.42316	964.53204	300.68323	-414.47092	588.45996	315.34546	-451.66632	511.90372	305.73035	-470.85852	577.55829	335.46671	-460.38168	533.08972	328.87704	-411.28638	474.17218	315.10458	-449.57776	464.54929	209.43129	-307.29675	425.60953	315.10345	-278.21274	392.17642	312.10901	-349.76447	381.21158	325.50586	-314.78107	353.60495	321.91049	-116.63569	164.70837	243.59865	-159.97249	174.43968	156.14682	-57.26535	178.34645	181.33563	-181.16452	60.89300	261.62280	-240.13103	54.53994	195.16200	-180.31609	72.71815	142.75189	-417.14627	981.10175	132.52734	-589.16345	961.12756	70.18942	-638.80756	612.58923	42.50933	-658.07660	574.92780	52.40217	-693.33875	637.10718	62.27782	-704.10541	595.03546	66.75844	-706.52045	509.13043	76.75990	-666.94153	483.01138	180.87601	-671.75787	389.84799	53.48555	-684.50562	345.80508	58.43986	-731.05347	401.25717	71.34143	-735.68030	353.93808	72.21818	-736.72803	94.12676	117.84830	-760.43561	109.44308	216.78528	-674.02576	59.53203	174.70465	-890.31885	57.03890	202.36440	-895.06598	70.15435	151.89264	-856.40161	42.12912	91.44130
570	4.74167	-418.44312	967.65112	214.83450	-588.03229	964.92798	300.70892	-433.11395	585.56372	316.43042	-464.92676	512.79883	306.97903	-489.19437	575.85846	336.35861	-479.75879	531.13025	329.97778	-431.74625	471.75244	316.98181	-470.25735	461.71198	211.22777	-326.96991	426.97885	317.18652	-296.86526	394.44894	314.29468	-367.92856	381.37463	327.63721	-332.18964	354.84048	324.16476	-127.60653	172.15666	246.78957	-171.32536	180.49489	159.29744	-69.21215	190.61060	184.93924	-185.66537	64.39870	263.05167	-242.93399	55.66626	196.10066	-187.80376	75.63484	144.85225	-427.96689	981.42242	132.86240	-600.29382	962.17792	70.29404	-649.07629	612.98865	42.69783	-668.00928	575.45654	52.92473	-703.96082	637.38885	62.13983	-714.43115	595.31732	66.89852	-716.74261	509.49921	77.95231	-675.62103	483.44415	181.17780	-680.91919	390.89890	53.17484	-692.54254	346.56763	58.28853	-740.01453	401.04019	72.28856	-743.63568	353.51416	73.21248	-737.72662	94.26905	118.91063	-760.91016	108.74560	217.97040	-674.29352	59.68995	174.89688	-890.68781	54.81923	203.57155	-895.50232	68.51901	153.32948	-856.77051	42.28355	91.99890
571	4.75000	-429.16180	967.50946	215.31808	-599.20148	965.33124	300.74258	-451.51480	582.70087	317.34177	-478.59396	513.75427	308.29514	-508.24213	574.11285	337.62698	-499.62601	528.96497	331.18222	-451.97913	469.81937	318.80814	-490.99490	458.31204	212.72765	-347.52850	428.15033	319.35364	-316.44614	396.58557	316.53793	-387.19958	381.38162	329.20270	-349.87076	357.24646	326.97626	-139.62177	180.37207	250.19775	-183.63640	186.99927	162.33427	-82.31318	203.56534	189.01469	-190.52000	68.89353	264.82455	-246.77319	57.26127	197.44049	-196.08272	78.73187	147.14217	-438.43726	981.67377	133.29605	-610.74573	963.30243	70.41132	-659.07660	613.66064	43.17870	-677.91095	575.98828	53.71237	-714.37427	637.68683	61.70325	-724.48608	595.69257	67.08611	-726.72388	510.12878	79.30973	-684.84137	484.90723	182.37602	-689.74023	392.29028	53.01320	-699.92676	347.87308	58.00229	-748.64172	401.12405	73.31618	-751.34869	353.61630	74.27966	-738.24115	94.50636	119.41357	-761.64941	108.42799	218.28529	-674.62921	59.91248	174.91260	-891.10547	53.53477	203.65669	-895.88580	67.29653	153.43051	-857.02545	42.07528	91.78106
572	4.75833	-439.54343	967.43799	215.86162	-609.53009	965.53864	300.77457	-469.96753	579.82343	318.29565	-492.67719	514.77087	309.68021	-526.86975	572.44342	338.80435	-518.77301	527.42017	332.32965	-473.24362	467.76318	320.25705	-512.36121	456.02338	213.90147	-368.84171	429.19684	321.68231	-336.96307	398.49301	319.00867	-407.42001	381.24203	331.01160	-369.36594	358.06610	328.88367	-152.74181	189.27753	253.88315	-195.96698	194.06808	166.13081	-96.79702	217.00330	193.32758	-196.01564	74.47121	267.03387	-251.81400	59.28141	199.30942	-205.18254	82.01447	149.62775	-449.48776	981.93494	133.23123	-620.88263	964.47650	70.23921	-668.86401	614.22736	43.61502	-687.29114	576.57904	54.42030	-723.86615	637.63910	61.60892	-734.19965	596.02301	67.41572	-736.13110	510.88184	80.49538	-694.55286	487.43378	184.09380	-698.12122	393.72113	53.21483	-707.81702	348.97806	58.60214	-757.52362	401.34274	74.50271	-758.72650	353.91043	75.16808	-738.62354	94.61306	119.59419	-762.12671	108.23681	218.38246	-674.93176	60.01643	174.87386	-891.40308	52.81076	203.55992	-896.19714	66.57154	153.43344	-857.16583	41.80894	91.50593
573	4.76667	-449.65836	967.29077	216.32198	-619.89813	965.98645	300.76804	-487.78851	577.19531	319.02118	-507.18607	515.84998	311.13577	-544.79358	571.15405	339.77203	-538.41095	525.84760	333.65512	-494.64496	465.93604	322.18109	-534.00751	454.41321	214.87932	-390.91287	430.11148	324.18774	-358.10684	400.35324	321.47580	-428.18396	381.18857	332.71155	-389.65051	358.83115	330.72998	-166.99939	198.76004	257.68393	-209.96330	201.74648	169.29906	-112.44440	230.74219	197.91585	-202.48550	81.18795	269.45938	-258.29834	61.54892	201.30948	-215.13316	85.48796	152.31511	-458.79346	982.62695	134.47308	-630.90387	965.83215	70.09827	-678.00983	614.72620	44.01046	-696.39471	577.00403	55.05083	-733.79395	638.17566	61.55126	-743.47662	596.35339	67.66444	-744.91541	511.28955	81.36614	-704.08496	489.93924	185.39914	-705.74213	395.01852	53.76278	-714.56116	350.08508	59.11556	-764.55383	401.72818	74.94337	-765.48340	354.08511	75.72726	-738.92737	94.75985	119.89007	-762.35992	108.05284	218.62584	-675.08789	60.07521	174.85059	-891.52802	52.16468	203.78964	-896.50891	65.91405	153.73071	-857.32147	41.72719	91.55598
